<svg version="1.0" xmlns="http://www.w3.org/2000/svg"
 width="130.000000pt" height="130.000000pt" viewBox="0 0 130.000000 130.000000"
 preserveAspectRatio="xMidYMid meet">

<g transform="translate(0.000000,130.000000) scale(0.100000,-0.100000)"
fill="#000000" stroke="none">
<path d="M945 1198 c-26 -15 -120 -108 -109 -108 5 0 29 20 53 45 43 44 82 65
46 25 -12 -14 -14 -20 -5 -20 7 0 18 6 24 14 17 23 91 24 115 2 23 -21 26 -34
11 -56 -9 -13 -11 -13 -21 0 -8 12 -9 9 -4 -10 4 -14 14 -31 23 -37 14 -11 14
-15 -3 -33 -10 -11 -14 -20 -9 -20 16 0 34 22 34 41 0 10 5 19 11 21 16 5 3
67 -19 93 -43 50 -103 68 -147 43z m63 -15 c-10 -2 -26 -2 -35 0 -10 3 -2 5
17 5 19 0 27 -2 18 -5z m95 -108 c-5 -13 -23 -22 -23 -11 0 15 14 35 21 31 4
-3 6 -12 2 -20z"/>
<path d="M1000 1160 l-45 -6 35 -5 35 -6 -33 -1 c-43 -2 -38 -20 10 -37 36
-12 38 -11 47 14 6 17 10 20 10 9 1 -21 21 -25 21 -5 0 28 -33 43 -80 37z"/>
<path d="M1040 1051 c0 -6 4 -13 10 -16 6 -3 7 1 4 9 -7 18 -14 21 -14 7z"/>
<path d="M520 630 c0 -5 5 -10 11 -10 5 0 7 5 4 10 -3 6 -8 10 -11 10 -2 0 -4
-4 -4 -10z"/>
<path d="M580 574 c0 -4 16 -24 35 -45 19 -22 35 -36 35 -33 0 3 14 -8 30 -26
17 -18 33 -30 37 -27 3 4 -9 20 -28 37 -19 17 -51 47 -71 66 -21 19 -38 31
-38 28z"/>
<path d="M276 343 c-18 -19 -22 -29 -14 -32 7 -2 17 -9 21 -15 4 -6 5 1 1 17
-5 20 -2 27 9 27 19 0 31 16 18 25 -5 3 -21 -7 -35 -22z"/>
<path d="M212 279 c-37 -46 -27 -113 25 -167 16 -17 74 -26 108 -18 25 6 155
126 155 142 0 4 -8 0 -18 -9 -10 -10 -24 -17 -30 -17 -7 0 -12 -6 -12 -14 0
-21 -26 -40 -35 -25 -4 6 -3 14 3 18 6 4 10 15 8 26 -2 16 -11 19 -47 19 -40
-1 -40 0 -6 3 54 6 45 21 -15 25 -82 5 -108 0 -108 -22 0 -10 -4 -21 -9 -24
-4 -3 -6 7 -3 22 5 24 4 26 -11 13 -23 -19 -21 -5 2 18 12 12 21 15 23 9 2 -6
8 -9 14 -7 5 2 3 11 -6 19 -14 14 -18 13 -38 -11z m25 -126 c1 -22 -1 -24 -8
-10 -6 9 -7 22 -4 27 9 14 10 13 12 -17z m150 11 c-3 -3 -12 -4 -19 -1 -8 3
-5 6 6 6 11 1 17 -2 13 -5z"/>
<path d="M520 265 c-11 -13 -10 -14 4 -9 9 3 16 10 16 15 0 13 -6 11 -20 -6z"/>
</g>
</svg>
